<mxfile host="app.diagrams.net" modified="2022-07-04T06:01:37.035Z" agent="5.0 (X11; Linux x86_64) AppleWebKit/537.36 (KHTML, like Gecko) Chrome/102.0.0.0 Safari/537.36" etag="CNqDChSuGGigAAZo9w4g" version="19.0.1" type="github">
  <diagram id="2qspyzf-ruP9NshNnaJj" name="Page-1">
    <mxGraphModel dx="2012" dy="616" grid="1" gridSize="10" guides="1" tooltips="1" connect="1" arrows="1" fold="1" page="1" pageScale="1" pageWidth="827" pageHeight="1169" math="0" shadow="0">
      <root>
        <mxCell id="0" />
        <mxCell id="1" parent="0" />
        <mxCell id="J98nXzrh9_PEmeKPfJ4L-1" value="HandlerThread" style="swimlane;fontStyle=1;align=center;verticalAlign=top;childLayout=stackLayout;horizontal=1;startSize=26;horizontalStack=0;resizeParent=1;resizeParentMax=0;resizeLast=0;collapsible=1;marginBottom=0;" vertex="1" parent="1">
          <mxGeometry x="150" y="240" width="160" height="86" as="geometry" />
        </mxCell>
        <mxCell id="J98nXzrh9_PEmeKPfJ4L-2" value="+ field: type" style="text;strokeColor=none;fillColor=none;align=left;verticalAlign=top;spacingLeft=4;spacingRight=4;overflow=hidden;rotatable=0;points=[[0,0.5],[1,0.5]];portConstraint=eastwest;" vertex="1" parent="J98nXzrh9_PEmeKPfJ4L-1">
          <mxGeometry y="26" width="160" height="26" as="geometry" />
        </mxCell>
        <mxCell id="J98nXzrh9_PEmeKPfJ4L-3" value="" style="line;strokeWidth=1;fillColor=none;align=left;verticalAlign=middle;spacingTop=-1;spacingLeft=3;spacingRight=3;rotatable=0;labelPosition=right;points=[];portConstraint=eastwest;" vertex="1" parent="J98nXzrh9_PEmeKPfJ4L-1">
          <mxGeometry y="52" width="160" height="8" as="geometry" />
        </mxCell>
        <mxCell id="J98nXzrh9_PEmeKPfJ4L-4" value="+ run() : void&#xa;" style="text;strokeColor=none;fillColor=none;align=left;verticalAlign=top;spacingLeft=4;spacingRight=4;overflow=hidden;rotatable=0;points=[[0,0.5],[1,0.5]];portConstraint=eastwest;" vertex="1" parent="J98nXzrh9_PEmeKPfJ4L-1">
          <mxGeometry y="60" width="160" height="26" as="geometry" />
        </mxCell>
        <mxCell id="J98nXzrh9_PEmeKPfJ4L-5" value="一个HandlerThread就绑定了一个looper" style="text;html=1;strokeColor=none;fillColor=none;align=center;verticalAlign=middle;whiteSpace=wrap;rounded=0;" vertex="1" parent="1">
          <mxGeometry x="140" y="50" width="200" height="50" as="geometry" />
        </mxCell>
        <mxCell id="J98nXzrh9_PEmeKPfJ4L-7" style="edgeStyle=orthogonalEdgeStyle;rounded=0;orthogonalLoop=1;jettySize=auto;html=1;" edge="1" parent="1" source="J98nXzrh9_PEmeKPfJ4L-6" target="J98nXzrh9_PEmeKPfJ4L-4">
          <mxGeometry relative="1" as="geometry" />
        </mxCell>
        <mxCell id="J98nXzrh9_PEmeKPfJ4L-6" value="1. 创建绑定Looper&lt;br&gt;2. 当前线程一直循环looper" style="text;html=1;strokeColor=none;fillColor=none;align=center;verticalAlign=middle;whiteSpace=wrap;rounded=0;" vertex="1" parent="1">
          <mxGeometry x="-90" y="276" width="200" height="50" as="geometry" />
        </mxCell>
        <mxCell id="J98nXzrh9_PEmeKPfJ4L-8" value=":Looper" style="shape=umlLifeline;perimeter=lifelinePerimeter;whiteSpace=wrap;html=1;container=1;collapsible=0;recursiveResize=0;outlineConnect=0;" vertex="1" parent="1">
          <mxGeometry x="-20" y="380" width="100" height="300" as="geometry" />
        </mxCell>
        <mxCell id="J98nXzrh9_PEmeKPfJ4L-19" value="" style="html=1;points=[];perimeter=orthogonalPerimeter;" vertex="1" parent="J98nXzrh9_PEmeKPfJ4L-8">
          <mxGeometry x="45" y="60" width="10" height="80" as="geometry" />
        </mxCell>
        <mxCell id="J98nXzrh9_PEmeKPfJ4L-20" value="loopOnce" style="verticalAlign=bottom;endArrow=block;entryX=0;entryY=0;rounded=0;" edge="1" target="J98nXzrh9_PEmeKPfJ4L-19" parent="J98nXzrh9_PEmeKPfJ4L-8">
          <mxGeometry relative="1" as="geometry">
            <mxPoint x="-30" y="60" as="sourcePoint" />
          </mxGeometry>
        </mxCell>
        <mxCell id="J98nXzrh9_PEmeKPfJ4L-21" value="return" style="html=1;verticalAlign=bottom;endArrow=open;dashed=1;endSize=8;exitX=0;exitY=0.95;rounded=0;" edge="1" parent="J98nXzrh9_PEmeKPfJ4L-8">
          <mxGeometry relative="1" as="geometry">
            <mxPoint x="-20" y="131" as="targetPoint" />
            <mxPoint x="45.00000000000023" y="131.00000000000023" as="sourcePoint" />
          </mxGeometry>
        </mxCell>
        <mxCell id="J98nXzrh9_PEmeKPfJ4L-9" value=":MessageQueue" style="shape=umlLifeline;perimeter=lifelinePerimeter;container=1;collapsible=0;recursiveResize=0;outlineConnect=0;html=1;" vertex="1" parent="1">
          <mxGeometry x="130" y="380" width="100" height="300" as="geometry" />
        </mxCell>
        <mxCell id="J98nXzrh9_PEmeKPfJ4L-22" value=":&lt;span style=&quot;font-weight: 700;&quot;&gt;Handler&lt;/span&gt;" style="shape=umlLifeline;perimeter=lifelinePerimeter;whiteSpace=wrap;html=1;container=1;collapsible=0;recursiveResize=0;outlineConnect=0;" vertex="1" parent="1">
          <mxGeometry x="-20" y="720" width="100" height="400" as="geometry" />
        </mxCell>
        <mxCell id="J98nXzrh9_PEmeKPfJ4L-23" value="" style="html=1;points=[];perimeter=orthogonalPerimeter;" vertex="1" parent="J98nXzrh9_PEmeKPfJ4L-22">
          <mxGeometry x="45" y="60" width="10" height="80" as="geometry" />
        </mxCell>
        <mxCell id="J98nXzrh9_PEmeKPfJ4L-24" value="sendMessage(Message)" style="verticalAlign=bottom;endArrow=block;entryX=0;entryY=0;rounded=0;" edge="1" parent="J98nXzrh9_PEmeKPfJ4L-22" target="J98nXzrh9_PEmeKPfJ4L-23">
          <mxGeometry relative="1" as="geometry">
            <mxPoint x="-30" y="60" as="sourcePoint" />
          </mxGeometry>
        </mxCell>
        <mxCell id="J98nXzrh9_PEmeKPfJ4L-39" value="enqueueMessage" style="edgeStyle=orthogonalEdgeStyle;rounded=1;orthogonalLoop=1;jettySize=auto;html=0;" edge="1" parent="J98nXzrh9_PEmeKPfJ4L-22" source="J98nXzrh9_PEmeKPfJ4L-32" target="J98nXzrh9_PEmeKPfJ4L-37">
          <mxGeometry x="0.1333" y="22" relative="1" as="geometry">
            <Array as="points">
              <mxPoint x="70" y="200" />
              <mxPoint x="70" y="260" />
              <mxPoint x="80" y="260" />
              <mxPoint x="80" y="300" />
            </Array>
            <mxPoint x="-2" y="-10" as="offset" />
          </mxGeometry>
        </mxCell>
        <mxCell id="J98nXzrh9_PEmeKPfJ4L-32" value="" style="html=1;points=[];perimeter=orthogonalPerimeter;" vertex="1" parent="J98nXzrh9_PEmeKPfJ4L-22">
          <mxGeometry x="45" y="160" width="10" height="80" as="geometry" />
        </mxCell>
        <mxCell id="J98nXzrh9_PEmeKPfJ4L-33" value="sendMessageAtTime" style="edgeStyle=orthogonalEdgeStyle;rounded=1;orthogonalLoop=1;jettySize=auto;html=0;" edge="1" parent="J98nXzrh9_PEmeKPfJ4L-22" source="J98nXzrh9_PEmeKPfJ4L-23" target="J98nXzrh9_PEmeKPfJ4L-22">
          <mxGeometry relative="1" as="geometry">
            <Array as="points">
              <mxPoint x="110" y="100" />
              <mxPoint x="110" y="180" />
            </Array>
          </mxGeometry>
        </mxCell>
        <mxCell id="J98nXzrh9_PEmeKPfJ4L-37" value="" style="html=1;points=[];perimeter=orthogonalPerimeter;" vertex="1" parent="J98nXzrh9_PEmeKPfJ4L-22">
          <mxGeometry x="45" y="260" width="10" height="80" as="geometry" />
        </mxCell>
        <mxCell id="J98nXzrh9_PEmeKPfJ4L-26" value=":MessageQueue" style="shape=umlLifeline;perimeter=lifelinePerimeter;container=1;collapsible=0;recursiveResize=0;outlineConnect=0;html=1;" vertex="1" parent="1">
          <mxGeometry x="130" y="720" width="100" height="650" as="geometry" />
        </mxCell>
        <mxCell id="J98nXzrh9_PEmeKPfJ4L-35" value="" style="html=1;points=[];perimeter=orthogonalPerimeter;" vertex="1" parent="J98nXzrh9_PEmeKPfJ4L-26">
          <mxGeometry x="45" y="310" width="10" height="80" as="geometry" />
        </mxCell>
        <mxCell id="J98nXzrh9_PEmeKPfJ4L-27" value="Handler" style="swimlane;fontStyle=1;align=center;verticalAlign=top;childLayout=stackLayout;horizontal=1;startSize=26;horizontalStack=0;resizeParent=1;resizeParentMax=0;resizeLast=0;collapsible=1;marginBottom=0;" vertex="1" parent="1">
          <mxGeometry x="410" y="276" width="160" height="112" as="geometry" />
        </mxCell>
        <mxCell id="J98nXzrh9_PEmeKPfJ4L-28" value="- mLooper: Looper" style="text;strokeColor=none;fillColor=none;align=left;verticalAlign=top;spacingLeft=4;spacingRight=4;overflow=hidden;rotatable=0;points=[[0,0.5],[1,0.5]];portConstraint=eastwest;" vertex="1" parent="J98nXzrh9_PEmeKPfJ4L-27">
          <mxGeometry y="26" width="160" height="26" as="geometry" />
        </mxCell>
        <mxCell id="J98nXzrh9_PEmeKPfJ4L-31" value="- mQueue: MessageQueue" style="text;strokeColor=none;fillColor=none;align=left;verticalAlign=top;spacingLeft=4;spacingRight=4;overflow=hidden;rotatable=0;points=[[0,0.5],[1,0.5]];portConstraint=eastwest;" vertex="1" parent="J98nXzrh9_PEmeKPfJ4L-27">
          <mxGeometry y="52" width="160" height="26" as="geometry" />
        </mxCell>
        <mxCell id="J98nXzrh9_PEmeKPfJ4L-29" value="" style="line;strokeWidth=1;fillColor=none;align=left;verticalAlign=middle;spacingTop=-1;spacingLeft=3;spacingRight=3;rotatable=0;labelPosition=right;points=[];portConstraint=eastwest;" vertex="1" parent="J98nXzrh9_PEmeKPfJ4L-27">
          <mxGeometry y="78" width="160" height="8" as="geometry" />
        </mxCell>
        <mxCell id="J98nXzrh9_PEmeKPfJ4L-30" value="+ run() : void&#xa;" style="text;strokeColor=none;fillColor=none;align=left;verticalAlign=top;spacingLeft=4;spacingRight=4;overflow=hidden;rotatable=0;points=[[0,0.5],[1,0.5]];portConstraint=eastwest;" vertex="1" parent="J98nXzrh9_PEmeKPfJ4L-27">
          <mxGeometry y="86" width="160" height="26" as="geometry" />
        </mxCell>
        <mxCell id="J98nXzrh9_PEmeKPfJ4L-40" style="edgeStyle=orthogonalEdgeStyle;rounded=1;orthogonalLoop=1;jettySize=auto;html=0;" edge="1" parent="1" source="J98nXzrh9_PEmeKPfJ4L-37" target="J98nXzrh9_PEmeKPfJ4L-35">
          <mxGeometry relative="1" as="geometry">
            <Array as="points">
              <mxPoint x="105" y="1050" />
              <mxPoint x="105" y="1070" />
            </Array>
          </mxGeometry>
        </mxCell>
        <mxCell id="J98nXzrh9_PEmeKPfJ4L-41" value="enqueueMessage" style="edgeLabel;align=center;verticalAlign=middle;resizable=0;points=[];" vertex="1" connectable="0" parent="J98nXzrh9_PEmeKPfJ4L-40">
          <mxGeometry x="-0.3792" y="1" relative="1" as="geometry">
            <mxPoint x="15" y="11" as="offset" />
          </mxGeometry>
        </mxCell>
        <mxCell id="J98nXzrh9_PEmeKPfJ4L-42" value="1. 如果是第一次直接添加&lt;br&gt;2. 如果不是，添加在队列的后面&lt;br&gt;3. 然后通知wait部分" style="text;html=1;strokeColor=none;fillColor=none;align=left;verticalAlign=middle;whiteSpace=wrap;rounded=0;" vertex="1" parent="1">
          <mxGeometry x="190" y="1050" width="200" height="50" as="geometry" />
        </mxCell>
        <mxCell id="J98nXzrh9_PEmeKPfJ4L-43" value="然后其实就是另一端生产消费者拿数据" style="text;html=1;strokeColor=#b85450;fillColor=#f8cecc;align=left;verticalAlign=middle;whiteSpace=wrap;rounded=0;" vertex="1" parent="1">
          <mxGeometry x="190" y="1130" width="200" height="50" as="geometry" />
        </mxCell>
      </root>
    </mxGraphModel>
  </diagram>
</mxfile>
